<?xml version="1.0" encoding="UTF-8" standalone="no"?>
<svg
   xmlns:osb="http://www.openswatchbook.org/uri/2009/osb"
   xmlns:dc="http://purl.org/dc/elements/1.1/"
   xmlns:cc="http://creativecommons.org/ns#"
   xmlns:rdf="http://www.w3.org/1999/02/22-rdf-syntax-ns#"
   xmlns:svg="http://www.w3.org/2000/svg"
   xmlns="http://www.w3.org/2000/svg"
   xmlns:sodipodi="http://sodipodi.sourceforge.net/DTD/sodipodi-0.dtd"
   xmlns:inkscape="http://www.inkscape.org/namespaces/inkscape"
   width="200mm"
   height="200mm"
   viewBox="0 0 200 200"
   version="1.1"
   id="svg8"
   sodipodi:docname="inside.svg"
   inkscape:version="1.0.2 (1.0.2+r75+1)">
  <defs
     id="defs2">
    <marker
       style="overflow:visible"
       id="marker1864"
       refX="0"
       refY="0"
       orient="auto"
       inkscape:stockid="Arrow1Lstart"
       inkscape:isstock="true">
      <path
         transform="matrix(0.8,0,0,0.8,10,0)"
         style="fill:#000000;fill-opacity:1;fill-rule:evenodd;stroke:#000000;stroke-width:1pt;stroke-opacity:1"
         d="M 0,0 5,-5 -12.5,0 5,5 Z"
         id="path1862" />
    </marker>
    <marker
       style="overflow:visible"
       id="marker1830"
       refX="0"
       refY="0"
       orient="auto"
       inkscape:stockid="Arrow1Lend"
       inkscape:isstock="true">
      <path
         transform="matrix(-0.8,0,0,-0.8,-10,0)"
         style="fill:#000000;fill-opacity:1;fill-rule:evenodd;stroke:#000000;stroke-width:1pt;stroke-opacity:1"
         d="M 0,0 5,-5 -12.5,0 5,5 Z"
         id="path1828" />
    </marker>
    <marker
       style="overflow:visible"
       id="Arrow1Lstart"
       refX="0"
       refY="0"
       orient="auto"
       inkscape:stockid="Arrow1Lstart"
       inkscape:isstock="true">
      <path
         transform="matrix(0.8,0,0,0.8,10,0)"
         style="fill:#000000;fill-opacity:1;fill-rule:evenodd;stroke:#000000;stroke-width:1pt;stroke-opacity:1"
         d="M 0,0 5,-5 -12.5,0 5,5 Z"
         id="path1514" />
    </marker>
    <marker
       style="overflow:visible"
       id="Arrow1Lend"
       refX="0"
       refY="0"
       orient="auto"
       inkscape:stockid="Arrow1Lend"
       inkscape:isstock="true">
      <path
         transform="matrix(-0.8,0,0,-0.8,-10,0)"
         style="fill:#000000;fill-opacity:1;fill-rule:evenodd;stroke:#000000;stroke-width:1pt;stroke-opacity:1"
         d="M 0,0 5,-5 -12.5,0 5,5 Z"
         id="path1517" />
    </marker>
    <linearGradient
       id="linearGradient1492"
       osb:paint="solid">
      <stop
         style="stop-color:#000000;stop-opacity:1;"
         offset="0"
         id="stop1490" />
    </linearGradient>
    <marker
       style="overflow:visible"
       id="marker1864-7"
       refX="0"
       refY="0"
       orient="auto"
       inkscape:stockid="Arrow1Lstart"
       inkscape:isstock="true">
      <path
         transform="matrix(0.8,0,0,0.8,10,0)"
         style="fill:#000000;fill-opacity:1;fill-rule:evenodd;stroke:#000000;stroke-width:1pt;stroke-opacity:1"
         d="M 0,0 5,-5 -12.5,0 5,5 Z"
         id="path1862-6" />
    </marker>
    <marker
       style="overflow:visible"
       id="marker1864-7-0"
       refX="0"
       refY="0"
       orient="auto"
       inkscape:stockid="Arrow1Lstart"
       inkscape:isstock="true">
      <path
         transform="matrix(0.8,0,0,0.8,10,0)"
         style="fill:#000000;fill-opacity:1;fill-rule:evenodd;stroke:#000000;stroke-width:1pt;stroke-opacity:1"
         d="M 0,0 5,-5 -12.5,0 5,5 Z"
         id="path1862-6-4" />
    </marker>
  </defs>
  <sodipodi:namedview
     id="base"
     pagecolor="#ffffff"
     bordercolor="#666666"
     borderopacity="1.0"
     inkscape:pageopacity="0.0"
     inkscape:pageshadow="2"
     inkscape:zoom="0.83205668"
     inkscape:cx="309.89613"
     inkscape:cy="524.69549"
     inkscape:document-units="mm"
     inkscape:current-layer="layer1"
     inkscape:document-rotation="0"
     showgrid="false"
     inkscape:window-width="1853"
     inkscape:window-height="1145"
     inkscape:window-x="1987"
     inkscape:window-y="27"
     inkscape:window-maximized="1" />
  <metadata
     id="metadata5">
    <rdf:RDF>
      <cc:Work
         rdf:about="">
        <dc:format>image/svg+xml</dc:format>
        <dc:type
           rdf:resource="http://purl.org/dc/dcmitype/StillImage" />
        <dc:title></dc:title>
      </cc:Work>
    </rdf:RDF>
  </metadata>
  <g
     inkscape:label="Layer 1"
     inkscape:groupmode="layer"
     id="layer1"
     style="display:inline">
    <path
       style="opacity:0.1;fill:#00ffff;fill-opacity:1;stroke:#000000;stroke-width:0.291024px;stroke-linecap:butt;stroke-linejoin:miter;stroke-opacity:1"
       d="m 57.335407,280.08672 c 0.653572,-13.58163 -5.463806,-24.40581 -5.300736,-36.94047 -2.6861,-13.51299 2.855525,-22.78322 5.948113,-32.79722 1.378239,-4.79807 6.131768,-12.41099 7.081548,-16.45626 3.983566,-13.72807 7.622208,-23.6455 15.170955,-34.40724 6.668942,-10.59289 8.921408,-13.91664 12.224905,-25.45775 0,0 3.692212,-12.8721 4.665536,-16.94886 0.821994,-7.80715 7.019372,7.7048 8.366052,10.5044 0.67494,1.34987 1.85173,2.79451 2.30057,4.14102 0.78407,2.35224 3.69285,7.33874 4.51423,9.52912 2.04971,9.7004 2.35462,19.95501 1.46724,30.0406 3.98734,10.2906 2.49521,16.10253 1.8143,21.29548 -1.27718,7.66306 4.12875,14.25509 4.12875,22.09711 0.25551,6.45034 -2.28799,12.74299 -1.48259,18.26547 8.71303,2.72937 7.25792,-10.32138 7.96753,-11.43275 6.30915,-9.46373 2.33504,-12.27096 4.48719,-23.03168 0.0379,-8.55988 4.75518,-16.8387 7.47575,-23.89986 4.54403,-7.89908 9.90195,-14.92561 14.26351,-22.54553 4.04796,-8.10958 10.38935,-17.94678 6.90169,-25.76633 3.12743,-19.67016 -22.69553,-33.810539 -6.66587,-41.606153 l -5.48002,-4.873607 c -7.08343,14.020171 -8.13901,-4.204443 -18.20157,1.399192 0,0 -8.77339,-8.619449 -9.21946,-8.238816 -0.72805,0.621276 -0.74209,4.779549 -1.2033,5.903034 0.46956,5.501347 -5.11791,8.14419 -9.58744,8.172228 -2.19469,1.13193 -3.5948,-3.986501 -4.57271,-5.969472 -0.27957,-0.559129 -0.88439,-7.439461 -0.46011,-8.282851 5.1855,-6.962866 -2.11054,-2.356536 -9.366768,0.16494 -9.238144,8.435066 -5.375694,17.78196 -6.203933,21.920262 v 0 l -9.225785,9.480353 c -7.786976,5.02117 -5.805392,4.40319 -10.827157,-2.15984 -0.481791,-0.62966 -3.01324,-7.407561 -3.263192,-8.152953 0,0 7.818206,-4.499917 9.279163,-5.101162 0,0 5.62132,-6.971478 -2.396651,-6.856513 -25.795028,22.655898 -22.385281,2.702691 -36.720565,10.743238 0,0 -10.505487,7.74325 2.451009,13.5255 0,0 13.252929,7.23511 -10.911738,16.41588 -0.611508,0.20383 -7.696985,-0.56211 -7.696985,-0.56211 -3.249106,1.26662 -0.796088,11.46183 -3.077621,13.13447 -15.56799654,3.12333 -12.6380343,10.08933 -12.6380343,10.08933 0,0 20.4099593,-4.87064 19.9478143,-1.2163 -23.80124663,14.0616 -17.4651096,11.76658 -14.5024001,21.51285 9.5101021,19.49365 -5.6415082,51.05916 9.1659031,51.85846 1.025197,4.10079 -1.785355,20.08173 -1.268042,24.22023 -1.333206,8.67613 3.61971,18.27119 1.380339,26.66146 -1.250123,3.82582 -2.616557,8.8069 -2.616557,12.46829"
       id="path249"
       sodipodi:nodetypes="ccccccccscccccccccccccsccccccccsccccccccccccccc" />
    <ellipse
       style="fill:#008080;fill-rule:evenodd;stroke-width:0.291024;opacity:0.5"
       id="path257"
       cx="111.9548"
       cy="4.0797014"
       rx="3.2780197"
       ry="3.2410929" />
    <ellipse
       style="fill:#008080;fill-rule:evenodd;stroke-width:0.291024;opacity:0.5"
       id="path257-3"
       cx="171.49367"
       cy="21.510994"
       rx="3.2780197"
       ry="3.2410929" />
    <ellipse
       style="fill:#008080;fill-rule:evenodd;stroke-width:0.291024;opacity:0.5"
       id="path257-6"
       cx="167.29907"
       cy="31.896778"
       rx="3.2780197"
       ry="3.2410929" />
    <ellipse
       style="fill:#008080;fill-rule:evenodd;stroke-width:0.291024;opacity:0.5"
       id="path257-7"
       cx="170.92615"
       cy="48.386925"
       rx="3.2780197"
       ry="3.2410929" />
    <ellipse
       style="fill:#008080;fill-rule:evenodd;stroke-width:0.291024"
       id="path257-5"
       cx="159.97826"
       cy="52.205383"
       rx="3.2780197"
       ry="3.2410929" />
    <ellipse
       style="fill:#008080;fill-rule:evenodd;stroke-width:0.291024"
       id="path257-35"
       cx="147.85245"
       cy="49.94125"
       rx="3.2780197"
       ry="3.2410929" />
    <ellipse
       style="fill:#008080;fill-rule:evenodd;stroke-width:0.291024"
       id="path257-62"
       cx="132.93747"
       cy="47.380936"
       rx="3.2780197"
       ry="3.2410929" />
    <ellipse
       style="fill:#008080;fill-rule:evenodd;stroke-width:0.291024"
       id="path257-9"
       cx="130.08327"
       cy="75.481705"
       rx="3.2780197"
       ry="3.2410929" />
    <ellipse
       style="fill:#008080;fill-rule:evenodd;stroke-width:0.291024"
       id="path257-1"
       cx="152.94095"
       cy="72.173424"
       rx="3.2780197"
       ry="3.2410929" />
    <ellipse
       style="fill:#008080;fill-rule:evenodd;stroke-width:0.291024;opacity:0.5"
       id="path257-2"
       cx="171.60229"
       cy="64.733894"
       rx="3.2780197"
       ry="3.2410929" />
    <ellipse
       style="fill:#008080;fill-rule:evenodd;stroke-width:0.291024;opacity:0.5"
       id="path257-70"
       cx="188.7178"
       cy="46.324951"
       rx="3.2780197"
       ry="3.2410929" />
    <ellipse
       style="fill:#008080;fill-rule:evenodd;stroke-width:0.291024;opacity:0.5"
       id="path257-93"
       cx="189.37283"
       cy="60.41843"
       rx="3.2780197"
       ry="3.2410929" />
    <ellipse
       style="fill:#008080;fill-rule:evenodd;stroke-width:0.291024;opacity:0.5"
       id="path257-60"
       cx="195.33351"
       cy="86.800545"
       rx="3.2780197"
       ry="3.2410929" />
    <ellipse
       style="fill:#008080;fill-rule:evenodd;stroke-width:0.291024;opacity:0.5"
       id="path257-626"
       cx="185.95357"
       cy="92.015541"
       rx="3.2780197"
       ry="3.2410929" />
    <ellipse
       style="fill:#008080;fill-rule:evenodd;stroke-width:0.291024;opacity:0.5"
       id="path257-18"
       cx="172.27159"
       cy="94.621269"
       rx="3.2780197"
       ry="3.2410929" />
    <ellipse
       style="fill:#008080;fill-rule:evenodd;stroke-width:0.291024"
       id="path257-79"
       cx="164.97"
       cy="86.600159"
       rx="3.2780197"
       ry="3.2410929" />
    <ellipse
       style="fill:#008080;fill-rule:evenodd;stroke-width:0.291024"
       id="path257-20"
       cx="165.15488"
       cy="118.42915"
       rx="3.2780197"
       ry="3.2410929" />
    <ellipse
       style="fill:#008080;fill-rule:evenodd;stroke-width:0.291024;opacity:0.5"
       id="path257-23"
       cx="179.45032"
       cy="114.36954"
       rx="3.2780197"
       ry="3.2410929" />
    <ellipse
       style="fill:#008080;fill-rule:evenodd;stroke-width:0.291024;opacity:0.5"
       id="path257-75"
       cx="179.97923"
       cy="149.28629"
       rx="3.2780197"
       ry="3.2410929" />
    <ellipse
       style="fill:#008080;fill-rule:evenodd;stroke-width:0.291024;opacity:0.5"
       id="path257-92"
       cx="179.00124"
       cy="219.54477"
       rx="3.2780197"
       ry="3.2410929" />
    <ellipse
       style="fill:#008080;fill-rule:evenodd;stroke-width:0.291024;opacity:0.5"
       id="path257-28"
       cx="144.76477"
       cy="196.45938"
       rx="3.2780197"
       ry="3.2410929" />
    <ellipse
       style="fill:#008080;fill-rule:evenodd;stroke-width:0.291024"
       id="path257-97"
       cx="99.035538"
       cy="131.72337"
       rx="3.2780197"
       ry="3.2410929" />
    <ellipse
       style="fill:#008080;fill-rule:evenodd;stroke-width:0.291024;opacity:0.5"
       id="path257-36"
       cx="80.439339"
       cy="177.35025"
       rx="3.2780197"
       ry="3.2410929" />
    <ellipse
       style="fill:#008080;fill-rule:evenodd;stroke-width:0.291024;opacity:0.5"
       id="path257-12"
       cx="55.403656"
       cy="246.92612"
       rx="3.2780197"
       ry="3.2410929" />
    <ellipse
       style="fill:#008080;fill-rule:evenodd;stroke-width:0.291024;opacity:0.5"
       id="path257-94"
       cx="8.2655163"
       cy="181.71004"
       rx="3.2780197"
       ry="3.2410929" />
    <ellipse
       style="fill:#008080;fill-rule:evenodd;stroke-width:0.291024;opacity:0.5"
       id="path257-50"
       cx="16.407442"
       cy="116.53553"
       rx="3.2780197"
       ry="3.2410929" />
    <ellipse
       style="fill:#008080;fill-rule:evenodd;stroke-width:0.291024"
       id="path257-361"
       cx="74.665642"
       cy="95.941078"
       rx="3.2780197"
       ry="3.2410929" />
    <ellipse
       style="fill:#008080;fill-rule:evenodd;stroke-width:0.291024"
       id="path257-0"
       cx="89.52552"
       cy="68.104538"
       rx="3.2780197"
       ry="3.2410929" />
    <ellipse
       style="fill:#008080;fill-rule:evenodd;stroke-width:0.291024"
       id="path257-63"
       cx="110.52996"
       cy="31.076351"
       rx="3.2780197"
       ry="3.2410929" />
    <ellipse
       style="fill:#008080;fill-rule:evenodd;stroke-width:0.291024"
       id="path257-206"
       cx="85.247993"
       cy="46.139381"
       rx="3.2780197"
       ry="3.2410929" />
    <ellipse
       style="fill:#008080;fill-rule:evenodd;stroke-width:0.291024;opacity:0.5"
       id="path257-15"
       cx="67.241936"
       cy="59.71714"
       rx="3.2780197"
       ry="3.2410929" />
    <ellipse
       style="fill:#008080;fill-rule:evenodd;stroke-width:0.291024;opacity:0.5"
       id="path257-54"
       cx="49.634846"
       cy="16.291815"
       rx="3.2780197"
       ry="3.2410929" />
    <ellipse
       style="fill:#008080;fill-rule:evenodd;stroke-width:0.291024;opacity:0.5"
       id="path257-56"
       cx="40.345066"
       cy="22.415436"
       rx="3.2780197"
       ry="3.2410929" />
    <ellipse
       style="fill:#008080;fill-rule:evenodd;stroke-width:0.291024;opacity:0.5"
       id="path257-937"
       cx="31.16058"
       cy="44.775761"
       rx="3.2780197"
       ry="3.2410929" />
    <ellipse
       style="fill:#008080;fill-rule:evenodd;stroke-width:0.291024;opacity:0.5"
       id="path257-45"
       cx="26.773237"
       cy="77.342651"
       rx="3.2780197"
       ry="3.2410929" />
    <ellipse
       style="fill:#008080;fill-rule:evenodd;stroke-width:0.291024;opacity:0.5"
       id="path257-25"
       cx="27.728085"
       cy="89.655998"
       rx="3.2780197"
       ry="3.2410929" />
    <ellipse
       style="fill:#008080;fill-rule:evenodd;stroke-width:0.291024;opacity:0.5"
       id="path257-47"
       cx="40.948105"
       cy="91.19342"
       rx="3.2780197"
       ry="3.2410929" />
    <ellipse
       style="fill:#008080;fill-rule:evenodd;stroke-width:0.291024;opacity:0.5"
       id="path257-44"
       cx="58.514389"
       cy="90.09993"
       rx="3.2780197"
       ry="3.2410929" />
    <path
       style="fill:none;stroke:#000000;stroke-width:0.305993px;stroke-linecap:butt;stroke-linejoin:miter;stroke-opacity:1"
       d="M 55.294217,129.2387 81.532414,18.90821 164.72059,19.446515 172.18383,152.41418 Z"
       id="path312" />
    <text
       xml:space="preserve"
       style="font-style:normal;font-weight:normal;font-size:10.5833px;line-height:1.25;font-family:sans-serif;fill:#000000;fill-opacity:1;stroke:none;stroke-width:0.264583"
       x="101.79338"
       y="98.327728"
       id="text316"><tspan
         sodipodi:role="line"
         id="tspan314"
         x="101.79338"
         y="98.327728"
         style="stroke-width:0.264583">inside</tspan></text>
  </g>
</svg>
