<?xml version="1.0" encoding="UTF-8" standalone="no"?>
<svg
   xmlns:osb="http://www.openswatchbook.org/uri/2009/osb"
   xmlns:dc="http://purl.org/dc/elements/1.1/"
   xmlns:cc="http://creativecommons.org/ns#"
   xmlns:rdf="http://www.w3.org/1999/02/22-rdf-syntax-ns#"
   xmlns:svg="http://www.w3.org/2000/svg"
   xmlns="http://www.w3.org/2000/svg"
   xmlns:sodipodi="http://sodipodi.sourceforge.net/DTD/sodipodi-0.dtd"
   xmlns:inkscape="http://www.inkscape.org/namespaces/inkscape"
   width="210mm"
   height="100mm"
   viewBox="0 0 210 100"
   version="1.1"
   id="svg8"
   sodipodi:docname="nearest.svg"
   inkscape:version="1.0.2 (1.0.2+r75+1)">
  <defs
     id="defs2">
    <marker
       style="overflow:visible"
       id="marker1864"
       refX="0"
       refY="0"
       orient="auto"
       inkscape:stockid="Arrow1Lstart"
       inkscape:isstock="true">
      <path
         transform="matrix(0.8,0,0,0.8,10,0)"
         style="fill:#000000;fill-opacity:1;fill-rule:evenodd;stroke:#000000;stroke-width:1pt;stroke-opacity:1"
         d="M 0,0 5,-5 -12.5,0 5,5 Z"
         id="path1862" />
    </marker>
    <marker
       style="overflow:visible"
       id="marker1830"
       refX="0"
       refY="0"
       orient="auto"
       inkscape:stockid="Arrow1Lend"
       inkscape:isstock="true">
      <path
         transform="matrix(-0.8,0,0,-0.8,-10,0)"
         style="fill:#000000;fill-opacity:1;fill-rule:evenodd;stroke:#000000;stroke-width:1pt;stroke-opacity:1"
         d="M 0,0 5,-5 -12.5,0 5,5 Z"
         id="path1828" />
    </marker>
    <marker
       style="overflow:visible"
       id="Arrow1Lstart"
       refX="0"
       refY="0"
       orient="auto"
       inkscape:stockid="Arrow1Lstart"
       inkscape:isstock="true">
      <path
         transform="matrix(0.8,0,0,0.8,10,0)"
         style="fill:#000000;fill-opacity:1;fill-rule:evenodd;stroke:#000000;stroke-width:1pt;stroke-opacity:1"
         d="M 0,0 5,-5 -12.5,0 5,5 Z"
         id="path1514" />
    </marker>
    <marker
       style="overflow:visible"
       id="Arrow1Lend"
       refX="0"
       refY="0"
       orient="auto"
       inkscape:stockid="Arrow1Lend"
       inkscape:isstock="true">
      <path
         transform="matrix(-0.8,0,0,-0.8,-10,0)"
         style="fill:#000000;fill-opacity:1;fill-rule:evenodd;stroke:#000000;stroke-width:1pt;stroke-opacity:1"
         d="M 0,0 5,-5 -12.5,0 5,5 Z"
         id="path1517" />
    </marker>
    <linearGradient
       id="linearGradient1492"
       osb:paint="solid">
      <stop
         style="stop-color:#000000;stop-opacity:1;"
         offset="0"
         id="stop1490" />
    </linearGradient>
    <marker
       style="overflow:visible"
       id="marker1864-7"
       refX="0"
       refY="0"
       orient="auto"
       inkscape:stockid="Arrow1Lstart"
       inkscape:isstock="true">
      <path
         transform="matrix(0.8,0,0,0.8,10,0)"
         style="fill:#000000;fill-opacity:1;fill-rule:evenodd;stroke:#000000;stroke-width:1pt;stroke-opacity:1"
         d="M 0,0 5,-5 -12.5,0 5,5 Z"
         id="path1862-6" />
    </marker>
    <marker
       style="overflow:visible"
       id="marker1864-7-0"
       refX="0"
       refY="0"
       orient="auto"
       inkscape:stockid="Arrow1Lstart"
       inkscape:isstock="true">
      <path
         transform="matrix(0.8,0,0,0.8,10,0)"
         style="fill:#000000;fill-opacity:1;fill-rule:evenodd;stroke:#000000;stroke-width:1pt;stroke-opacity:1"
         d="M 0,0 5,-5 -12.5,0 5,5 Z"
         id="path1862-6-4" />
    </marker>
    <marker
       style="overflow:visible"
       id="marker1864-8"
       refX="0"
       refY="0"
       orient="auto"
       inkscape:stockid="Arrow1Lstart"
       inkscape:isstock="true">
      <path
         transform="matrix(0.8,0,0,0.8,10,0)"
         style="fill:#000000;fill-opacity:1;fill-rule:evenodd;stroke:#000000;stroke-width:1pt;stroke-opacity:1"
         d="M 0,0 5,-5 -12.5,0 5,5 Z"
         id="path1862-0" />
    </marker>
    <marker
       style="overflow:visible"
       id="marker1864-7-4"
       refX="0"
       refY="0"
       orient="auto"
       inkscape:stockid="Arrow1Lstart"
       inkscape:isstock="true">
      <path
         transform="matrix(0.8,0,0,0.8,10,0)"
         style="fill:#000000;fill-opacity:1;fill-rule:evenodd;stroke:#000000;stroke-width:1pt;stroke-opacity:1"
         d="M 0,0 5,-5 -12.5,0 5,5 Z"
         id="path1862-6-0" />
    </marker>
    <marker
       style="overflow:visible"
       id="marker1864-7-0-9"
       refX="0"
       refY="0"
       orient="auto"
       inkscape:stockid="Arrow1Lstart"
       inkscape:isstock="true">
      <path
         transform="matrix(0.8,0,0,0.8,10,0)"
         style="fill:#000000;fill-opacity:1;fill-rule:evenodd;stroke:#000000;stroke-width:1pt;stroke-opacity:1"
         d="M 0,0 5,-5 -12.5,0 5,5 Z"
         id="path1862-6-4-1" />
    </marker>
  </defs>
  <sodipodi:namedview
     id="base"
     pagecolor="#ffffff"
     bordercolor="#666666"
     borderopacity="1.0"
     inkscape:pageopacity="0.0"
     inkscape:pageshadow="2"
     inkscape:zoom="1.1767058"
     inkscape:cx="444.65279"
     inkscape:cy="270.76935"
     inkscape:document-units="mm"
     inkscape:current-layer="layer1"
     inkscape:document-rotation="0"
     showgrid="false"
     inkscape:window-width="1853"
     inkscape:window-height="1145"
     inkscape:window-x="1987"
     inkscape:window-y="27"
     inkscape:window-maximized="1" />
  <metadata
     id="metadata5">
    <rdf:RDF>
      <cc:Work
         rdf:about="">
        <dc:format>image/svg+xml</dc:format>
        <dc:type
           rdf:resource="http://purl.org/dc/dcmitype/StillImage" />
        <dc:title></dc:title>
      </cc:Work>
    </rdf:RDF>
  </metadata>
  <g
     inkscape:label="Layer 1"
     inkscape:groupmode="layer"
     id="layer1"
     style="display:inline">
    <path
       style="opacity:0.1;fill:#00ffff;fill-opacity:1;stroke:#000000;stroke-width:0.150708px;stroke-linecap:butt;stroke-linejoin:miter;stroke-opacity:1"
       d="m 29.638839,148.19121 c 0.336461,-7.07496 -2.812781,-12.71353 -2.728832,-19.2431 -1.382811,-7.03921 1.470031,-11.86828 3.062103,-17.0848 0.70952,-2.49941 3.156649,-6.46514 3.645599,-8.57242 2.05075,-7.151254 3.923931,-12.317459 7.810045,-17.923487 3.433187,-5.518049 4.592763,-7.249451 6.29341,-13.261434 0,0 1.900762,-6.705324 2.401835,-8.828982 0.423167,-4.066898 3.6136,4.013572 4.306873,5.471939 0.347461,0.703175 0.953276,1.455711 1.184339,2.157137 0.403642,1.225323 1.901089,3.822889 2.323938,4.963898 1.055195,5.053122 1.212164,10.394961 0.755338,15.648769 2.052692,5.360597 1.28454,8.38816 0.934006,11.09327 -0.657495,3.99187 2.125492,7.4258 2.125492,11.51088 0.131537,3.36012 -1.177864,6.63809 -0.763241,9.51489 4.485489,1.42177 3.736394,-5.37664 4.101703,-5.95557 3.247966,-4.92988 1.202084,-6.39222 2.310017,-11.99772 0.0195,-4.45902 2.447978,-8.771642 3.848533,-12.449953 2.339279,-4.114805 5.09755,-7.775083 7.342889,-11.744457 2.083883,-4.224434 5.348438,-9.348819 3.552983,-13.422166 C 83.755877,57.821343 70.462181,50.455345 78.714287,46.394455 l -2.821125,-2.538753 c -3.646569,7.303371 -4.189982,-2.190176 -9.370214,0.728863 0,0 -4.516562,-4.490032 -4.746201,-4.29175 -0.374803,0.323634 -0.382029,2.489756 -0.619462,3.074998 0.241731,2.865763 -2.634712,4.242462 -4.935637,4.257074 -1.129832,0.589639 -1.850612,-2.076647 -2.354043,-3.109615 -0.143923,-0.291261 -0.455287,-3.875359 -0.236866,-4.31469 2.669508,-3.627094 -1.08651,-1.227566 -4.822049,0.08592 -4.755819,4.39399 -2.76742,9.262961 -3.1938,11.418685 v 0 l -4.749457,4.938498 c -4.008755,2.615628 -2.98863,2.293705 -5.573847,-1.125102 -0.248027,-0.327999 -1.551223,-3.858744 -1.679898,-4.247033 0,0 4.024831,-2.344091 4.776935,-2.657294 0,0 2.893869,-3.631573 -1.233802,-3.571687 -13.279344,11.801897 -11.523998,1.407884 -18.903837,5.596354 0,0 -5.408251,4.033619 1.261785,7.045699 0,0 6.82264,3.768905 -5.617389,8.551344 -0.314806,0.106181 -3.9624278,-0.292815 -3.9624278,-0.292815 -1.6726473,0.659812 -0.4098278,5.970691 -1.5843671,6.841998 -8.01444164,1.627002 -6.5060899,5.255724 -6.5060899,5.255724 0,0 10.5070958,-2.537207 10.2691828,-0.633595 -12.25293916,7.324963 -8.9910801,6.12944 -7.46587,11.206486 4.8958226,10.154666 -2.9042623,26.597826 4.7186288,27.014216 0.5277739,2.13617 -0.9191053,10.461 -0.6527916,12.61684 -0.6863375,4.51959 1.8634358,9.51787 0.7106025,13.88854 -0.6435668,1.99296 -1.3470106,4.58771 -1.3470106,6.495"
       id="path249"
       sodipodi:nodetypes="ccccccccscccccccccccccsccccccccsccccccccccccccc" />
    <ellipse
       style="opacity:0.5;fill:#008080;fill-rule:evenodd;stroke-width:0.150708"
       id="path257"
       cx="57.75703"
       cy="4.4135628"
       rx="1.6875327"
       ry="1.6883565" />
    <ellipse
       style="opacity:0.5;fill:#008080;fill-rule:evenodd;stroke-width:0.150708"
       id="path257-3"
       cx="88.407768"
       cy="13.493924"
       rx="1.6875327"
       ry="1.6883565" />
    <ellipse
       style="opacity:0.5;fill:#008080;fill-rule:evenodd;stroke-width:0.150708"
       id="path257-6"
       cx="86.248383"
       cy="18.904118"
       rx="1.6875327"
       ry="1.6883565" />
    <ellipse
       style="opacity:0.5;fill:#008080;fill-rule:evenodd;stroke-width:0.150708"
       id="path257-7"
       cx="88.115601"
       cy="27.494303"
       rx="1.6875327"
       ry="1.6883565" />
    <ellipse
       style="opacity:0.5;fill:#008080;fill-rule:evenodd;stroke-width:0.150708"
       id="path257-5"
       cx="82.479614"
       cy="29.483438"
       rx="1.6875327"
       ry="1.6883565" />
    <ellipse
       style="opacity:0.5;fill:#008080;fill-rule:evenodd;stroke-width:0.150708"
       id="path257-35"
       cx="76.237198"
       cy="28.304003"
       rx="1.6875327"
       ry="1.6883565" />
    <ellipse
       style="fill:#008080;fill-rule:evenodd;stroke-width:0.150708"
       id="path257-62"
       cx="68.558937"
       cy="26.970219"
       rx="1.6875327"
       ry="1.6883565" />
    <ellipse
       style="fill:#008080;fill-rule:evenodd;stroke-width:0.150708"
       id="path257-9"
       cx="67.089584"
       cy="41.60878"
       rx="1.6875327"
       ry="1.6883565" />
    <ellipse
       style="opacity:0.5;fill:#008080;fill-rule:evenodd;stroke-width:0.150708"
       id="path257-1"
       cx="78.856781"
       cy="39.885384"
       rx="1.6875327"
       ry="1.6883565" />
    <ellipse
       style="opacity:0.5;fill:#008080;fill-rule:evenodd;stroke-width:0.150708"
       id="path257-2"
       cx="88.463692"
       cy="36.009892"
       rx="1.6875327"
       ry="1.6883565" />
    <ellipse
       style="opacity:0.5;fill:#008080;fill-rule:evenodd;stroke-width:0.150708"
       id="path257-70"
       cx="97.274788"
       cy="26.420135"
       rx="1.6875327"
       ry="1.6883565" />
    <ellipse
       style="opacity:0.5;fill:#008080;fill-rule:evenodd;stroke-width:0.150708"
       id="path257-93"
       cx="97.612"
       cy="33.761845"
       rx="1.6875327"
       ry="1.6883565" />
    <ellipse
       style="opacity:0.5;fill:#008080;fill-rule:evenodd;stroke-width:0.151191"
       id="path257-60"
       cx="100.6806"
       cy="47.792404"
       rx="1.6875327"
       ry="1.6991898" />
    <ellipse
       style="opacity:0.5;fill:#008080;fill-rule:evenodd;stroke-width:0.150708"
       id="path257-626"
       cx="95.851761"
       cy="50.221741"
       rx="1.6875327"
       ry="1.6883565" />
    <ellipse
       style="opacity:0.5;fill:#008080;fill-rule:evenodd;stroke-width:0.150708"
       id="path257-18"
       cx="88.808235"
       cy="51.579102"
       rx="1.6875327"
       ry="1.6883565" />
    <ellipse
       style="opacity:0.5;fill:#008080;fill-rule:evenodd;stroke-width:0.150708"
       id="path257-79"
       cx="85.04937"
       cy="47.400719"
       rx="1.6875327"
       ry="1.6883565" />
    <ellipse
       style="opacity:0.5;fill:#008080;fill-rule:evenodd;stroke-width:0.150708"
       id="path257-20"
       cx="85.144554"
       cy="63.98138"
       rx="1.6875327"
       ry="1.6883565" />
    <ellipse
       style="opacity:0.5;fill:#008080;fill-rule:evenodd;stroke-width:0.150708"
       id="path257-23"
       cx="92.503868"
       cy="61.866592"
       rx="1.6875327"
       ry="1.6883565" />
    <ellipse
       style="opacity:0.5;fill:#008080;fill-rule:evenodd;stroke-width:0.150708"
       id="path257-75"
       cx="92.776154"
       cy="80.055725"
       rx="1.6875327"
       ry="1.6883565" />
    <ellipse
       style="opacity:0.5;fill:#008080;fill-rule:evenodd;stroke-width:0.150708"
       id="path257-92"
       cx="92.272667"
       cy="116.65527"
       rx="1.6875327"
       ry="1.6883565" />
    <ellipse
       style="opacity:0.5;fill:#008080;fill-rule:evenodd;stroke-width:0.150708"
       id="path257-28"
       cx="74.647652"
       cy="104.62957"
       rx="1.6875327"
       ry="1.6883565" />
    <ellipse
       style="opacity:0.5;fill:#008080;fill-rule:evenodd;stroke-width:0.150708"
       id="path257-97"
       cx="51.106155"
       cy="70.9067"
       rx="1.6875327"
       ry="1.6883565" />
    <ellipse
       style="opacity:0.5;fill:#008080;fill-rule:evenodd;stroke-width:0.150708"
       id="path257-36"
       cx="41.532799"
       cy="94.675087"
       rx="1.6875327"
       ry="1.6883565" />
    <ellipse
       style="opacity:0.5;fill:#008080;fill-rule:evenodd;stroke-width:0.150708"
       id="path257-12"
       cx="28.644369"
       cy="130.9187"
       rx="1.6875327"
       ry="1.6883565" />
    <ellipse
       style="opacity:0.5;fill:#008080;fill-rule:evenodd;stroke-width:0.150708"
       id="path257-94"
       cx="4.3775392"
       cy="96.946198"
       rx="1.6875327"
       ry="1.6883565" />
    <ellipse
       style="opacity:0.5;fill:#008080;fill-rule:evenodd;stroke-width:0.150708"
       id="path257-50"
       cx="8.5690289"
       cy="62.9949"
       rx="1.6875327"
       ry="1.6883565" />
    <ellipse
       style="opacity:0.5;fill:#008080;fill-rule:evenodd;stroke-width:0.150708"
       id="path257-361"
       cx="38.560486"
       cy="52.266674"
       rx="1.6875327"
       ry="1.6883565" />
    <ellipse
       style="fill:#008080;fill-rule:evenodd;stroke-width:0.150708"
       id="path257-0"
       cx="46.210392"
       cy="37.7658"
       rx="1.6875327"
       ry="1.6883565" />
    <ellipse
       style="opacity:0.5;fill:#008080;fill-rule:evenodd;stroke-width:0.150708"
       id="path257-63"
       cx="57.02351"
       cy="18.476746"
       rx="1.6875327"
       ry="1.6883565" />
    <ellipse
       style="opacity:0.5;fill:#008080;fill-rule:evenodd;stroke-width:0.150708"
       id="path257-206"
       cx="44.008305"
       cy="26.323483"
       rx="1.6875327"
       ry="1.6883565" />
    <ellipse
       style="opacity:0.5;fill:#008080;fill-rule:evenodd;stroke-width:0.150708"
       id="path257-15"
       cx="34.738743"
       cy="33.396538"
       rx="1.6875327"
       ry="1.6883565" />
    <ellipse
       style="opacity:0.5;fill:#008080;fill-rule:evenodd;stroke-width:0.150708"
       id="path257-54"
       cx="25.674568"
       cy="10.77514"
       rx="1.6875327"
       ry="1.6883565" />
    <ellipse
       style="opacity:0.5;fill:#008080;fill-rule:evenodd;stroke-width:0.150708"
       id="path257-56"
       cx="20.89217"
       cy="13.965047"
       rx="1.6875327"
       ry="1.6883565" />
    <ellipse
       style="opacity:0.5;fill:#008080;fill-rule:evenodd;stroke-width:0.150708"
       id="path257-937"
       cx="16.163973"
       cy="25.613123"
       rx="1.6875327"
       ry="1.6883565" />
    <ellipse
       style="opacity:0.5;fill:#008080;fill-rule:evenodd;stroke-width:0.150708"
       id="path257-45"
       cx="13.905358"
       cy="42.578209"
       rx="1.6875327"
       ry="1.6883565" />
    <ellipse
       style="opacity:0.5;fill:#008080;fill-rule:evenodd;stroke-width:0.150708"
       id="path257-25"
       cx="14.396915"
       cy="48.99258"
       rx="1.6875327"
       ry="1.6883565" />
    <ellipse
       style="opacity:0.5;fill:#008080;fill-rule:evenodd;stroke-width:0.150708"
       id="path257-47"
       cx="21.202616"
       cy="49.793442"
       rx="1.6875327"
       ry="1.6883565" />
    <ellipse
       style="opacity:0.5;fill:#008080;fill-rule:evenodd;stroke-width:0.150708"
       id="path257-44"
       cx="30.245781"
       cy="49.223816"
       rx="1.6875327"
       ry="1.6883565" />
    <ellipse
       style="opacity:1;fill:none;fill-rule:nonzero;stroke:#000000;stroke-width:0.304693;stroke-miterlimit:4;stroke-dasharray:none;stroke-opacity:1"
       id="path1486"
       ry="20.531496"
       rx="20.064322"
       cy="36.643063"
       cx="60.820572" />
    <text
       xml:space="preserve"
       style="font-style:normal;font-weight:normal;font-size:3.43755px;line-height:1.25;font-family:sans-serif;fill:#000000;fill-opacity:1;stroke:none;stroke-width:0.0859387"
       x="71.831215"
       y="31.743715"
       id="text1500"
       transform="scale(0.8939894,1.1185815)"><tspan
         sodipodi:role="line"
         id="tspan1498"
         x="71.831215"
         y="31.743715"
         style="stroke-width:0.0859387">maxdist</tspan></text>
    <path
       style="display:inline;fill:none;stroke:#000000;stroke-width:0.168677;stroke-linecap:butt;stroke-linejoin:bevel;stroke-miterlimit:4;stroke-dasharray:none;stroke-opacity:1;marker-start:url(#marker1864-7-0)"
       d="M 80.679028,36.968137 61.578569,36.836351"
       id="path1512-1-2"
       sodipodi:nodetypes="cc" />
    <ellipse
       style="opacity:1;fill:#ff0000;fill-opacity:1;fill-rule:nonzero;stroke:#ff0000;stroke-width:0.0633064;stroke-linejoin:bevel;stroke-miterlimit:4;stroke-dasharray:none;stroke-opacity:1"
       id="path2344"
       cx="61.035355"
       cy="36.705593"
       rx="0.7966817"
       ry="0.76918232" />
    <text
       xml:space="preserve"
       style="font-style:normal;font-weight:normal;font-size:3.43755px;line-height:1.25;font-family:sans-serif;display:inline;fill:#000000;fill-opacity:1;stroke:none;stroke-width:0.0859387"
       x="40.920509"
       y="29.088509"
       id="text1500-2"
       transform="scale(0.8939894,1.1185815)"><tspan
         sodipodi:role="line"
         id="tspan1498-9"
         x="40.920509"
         y="29.088509"
         style="stroke-width:0.0859387">maxcount</tspan></text>
    <text
       xml:space="preserve"
       style="font-style:normal;font-weight:normal;font-size:3.12433px;line-height:1.25;font-family:sans-serif;fill:#000000;fill-opacity:1;stroke:none;stroke-width:0.0781083"
       x="69.072556"
       y="37.255474"
       id="text2588"
       transform="scale(0.92975731,1.0755495)"><tspan
         sodipodi:role="line"
         id="tspan2586"
         x="69.072556"
         y="37.255474"
         style="stroke-width:0.0781083">1</tspan></text>
    <text
       xml:space="preserve"
       style="font-style:normal;font-weight:normal;font-size:3.12433px;line-height:1.25;font-family:sans-serif;display:inline;fill:#000000;fill-opacity:1;stroke:none;stroke-width:0.0781083"
       x="70.393257"
       y="23.916149"
       id="text2588-0"
       transform="scale(0.92975731,1.0755495)"><tspan
         sodipodi:role="line"
         id="tspan2586-2"
         x="70.393257"
         y="23.916149"
         style="stroke-width:0.0781083">2</tspan></text>
    <text
       xml:space="preserve"
       style="font-style:normal;font-weight:normal;font-size:3.12433px;line-height:1.25;font-family:sans-serif;display:inline;fill:#000000;fill-opacity:1;stroke:none;stroke-width:0.0781083"
       x="46.613628"
       y="33.667068"
       id="text2588-8"
       transform="scale(0.92975731,1.0755495)"><tspan
         sodipodi:role="line"
         id="tspan2586-3"
         x="46.613628"
         y="33.667068"
         style="stroke-width:0.0781083">3</tspan></text>
    <path
       style="display:inline;opacity:0.1;fill:#00ffff;fill-opacity:1;stroke:#000000;stroke-width:0.151311px;stroke-linecap:butt;stroke-linejoin:miter;stroke-opacity:1"
       d="m 134.83027,148.57962 c 0.33981,-7.06144 -2.84078,-12.68922 -2.756,-19.20631 -1.39656,-7.02576 1.48467,-11.84559 3.09259,-17.05213 0.71658,-2.49465 3.18806,-6.45281 3.68188,-8.55605 2.07116,-7.137559 3.96298,-12.293859 7.88778,-17.88916 3.46735,-5.50752 4.63847,-7.235625 6.35604,-13.236149 0,0 1.91968,-6.692542 2.42574,-8.812155 0.42738,-4.059139 3.64957,4.005926 4.34974,5.461511 0.35092,0.701833 0.96276,1.452939 1.19612,2.153026 0.40766,1.22299 1.92002,3.815602 2.34707,4.954438 1.0657,5.043491 1.22423,10.375131 0.76286,15.618877 2.07312,5.350327 1.29732,8.372082 0.9433,11.072032 -0.66404,3.98422 2.14664,7.41159 2.14664,11.48886 0.13285,3.35371 -1.18958,6.62542 -0.77083,9.4967 4.53013,1.41907 3.77358,-5.36635 4.14253,-5.94418 3.28029,-4.92045 1.21404,-6.37999 2.33301,-11.97478 0.0197,-4.4505 2.47233,-8.754865 3.88683,-12.426124 2.36256,-4.106916 5.14828,-7.76019 7.41597,-11.721986 2.10464,-4.216382 5.4017,-9.331 3.58837,-13.396587 1.62603,-10.227028 -11.8,-17.578987 -3.46576,-21.63213 l -2.84921,-2.533916 c -3.68285,7.289454 -4.23168,-2.186 -9.46347,0.727477 0,0 -4.56151,-4.481477 -4.79343,-4.283576 -0.37853,0.323017 -0.38584,2.485013 -0.62563,3.069141 0.24414,2.860294 -2.66093,4.234378 -4.98476,4.248956 -1.14108,0.58852 -1.86904,-2.072686 -2.37748,-3.103685 -0.14535,-0.290706 -0.45981,-3.86797 -0.23922,-4.30647 2.69608,-3.620177 -1.09732,-1.225225 -4.87004,0.08576 -4.80315,4.385611 -2.79496,9.245306 -3.22559,11.396917 v 0 l -4.79672,4.929089 c -4.04865,2.610637 -3.01838,2.289334 -5.62932,-1.122957 -0.2505,-0.327377 -1.56666,-3.851391 -1.69662,-4.23894 0,0 4.06489,-2.339624 4.82448,-2.652227 0,0 2.92267,-3.624653 -1.24608,-3.56488 -13.41151,11.779399 -11.63869,1.405199 -19.09199,5.58569 0,0 -5.46207,4.025924 1.27435,7.032267 0,0 6.89054,3.761726 -5.6733,8.535047 -0.31794,0.105977 -4.00186,-0.292255 -4.00186,-0.292255 -1.6893,0.658548 -0.41391,5.959304 -1.60014,6.828953 -8.09421,1.623896 -6.57084,5.245702 -6.57084,5.245702 0,0 10.61167,-2.532373 10.37139,-0.632387 -12.3749,7.310994 -9.08057,6.117753 -7.54018,11.185099 4.94455,10.135208 -2.93317,26.546922 4.7656,26.962502 0.53302,2.13211 -0.92826,10.44102 -0.65929,12.59273 -0.69318,4.51095 1.88198,9.49967 0.71767,13.86198 -0.64998,1.98915 -1.36042,4.57894 -1.36042,6.4826"
       id="path249-9"
       sodipodi:nodetypes="ccccccccscccccccccccccsccccccccsccccccccccccccc" />
    <ellipse
       style="display:inline;fill:#008080;fill-rule:evenodd;stroke-width:0.151311"
       id="path257-625"
       cx="163.22827"
       cy="4.5472608"
       rx="1.7043281"
       ry="1.6851289" />
    <ellipse
       style="display:inline;fill:#008080;fill-rule:evenodd;stroke-width:0.151311"
       id="path257-3-4"
       cx="194.18407"
       cy="13.610233"
       rx="1.7043281"
       ry="1.6851289" />
    <ellipse
       style="display:inline;fill:#008080;fill-rule:evenodd;stroke-width:0.151311"
       id="path257-6-4"
       cx="192.00317"
       cy="19.010071"
       rx="1.7043281"
       ry="1.6851289" />
    <ellipse
       style="display:inline;fill:#008080;fill-rule:evenodd;stroke-width:0.151311"
       id="path257-7-9"
       cx="193.88899"
       cy="27.583729"
       rx="1.7043281"
       ry="1.6851289" />
    <ellipse
       style="display:inline;fill:#008080;fill-rule:evenodd;stroke-width:0.151311"
       id="path257-5-9"
       cx="188.1969"
       cy="29.569046"
       rx="1.7043281"
       ry="1.6851289" />
    <ellipse
       style="display:inline;fill:#008080;fill-rule:evenodd;stroke-width:0.151311"
       id="path257-35-3"
       cx="181.89238"
       cy="28.391865"
       rx="1.7043281"
       ry="1.6851289" />
    <ellipse
       style="display:inline;fill:#008080;fill-rule:evenodd;stroke-width:0.151311"
       id="path257-62-6"
       cx="174.13768"
       cy="27.060692"
       rx="1.7043281"
       ry="1.6851289" />
    <ellipse
       style="display:inline;fill:#008080;fill-rule:evenodd;stroke-width:0.151311"
       id="path257-9-0"
       cx="172.65372"
       cy="41.671013"
       rx="1.7043281"
       ry="1.6851289" />
    <ellipse
       style="display:inline;fill:#008080;fill-rule:evenodd;stroke-width:0.151311"
       id="path257-1-5"
       cx="184.53802"
       cy="39.950951"
       rx="1.7043281"
       ry="1.6851289" />
    <ellipse
       style="display:inline;fill:#008080;fill-rule:evenodd;stroke-width:0.151311"
       id="path257-2-0"
       cx="194.24054"
       cy="36.082947"
       rx="1.7043281"
       ry="1.6851289" />
    <ellipse
       style="display:inline;fill:#008080;fill-rule:evenodd;stroke-width:0.151311"
       id="path257-70-2"
       cx="203.13933"
       cy="26.511654"
       rx="1.7043281"
       ry="1.6851289" />
    <ellipse
       style="display:inline;fill:#008080;fill-rule:evenodd;stroke-width:0.151311"
       id="path257-93-9"
       cx="203.47992"
       cy="33.839222"
       rx="1.7043281"
       ry="1.6851289" />
    <ellipse
       style="display:inline;fill:#008080;fill-rule:evenodd;stroke-width:0.151311"
       id="path257-60-4"
       cx="206.57903"
       cy="47.555973"
       rx="1.7043281"
       ry="1.6851289" />
    <ellipse
       style="display:inline;fill:#008080;fill-rule:evenodd;stroke-width:0.151311"
       id="path257-626-3"
       cx="201.70215"
       cy="50.267384"
       rx="1.7043281"
       ry="1.6851289" />
    <ellipse
       style="display:inline;fill:#008080;fill-rule:evenodd;stroke-width:0.151311"
       id="path257-18-5"
       cx="194.58853"
       cy="51.622169"
       rx="1.7043281"
       ry="1.6851289" />
    <ellipse
       style="display:inline;fill:#008080;fill-rule:evenodd;stroke-width:0.151311"
       id="path257-79-1"
       cx="190.79225"
       cy="47.451786"
       rx="1.7043281"
       ry="1.6851289" />
    <ellipse
       style="display:inline;fill:#008080;fill-rule:evenodd;stroke-width:0.151311"
       id="path257-20-7"
       cx="190.88835"
       cy="64.000496"
       rx="1.7043281"
       ry="1.6851289" />
    <ellipse
       style="display:inline;fill:#008080;fill-rule:evenodd;stroke-width:0.151311"
       id="path257-23-4"
       cx="198.32094"
       cy="61.889816"
       rx="1.7043281"
       ry="1.6851289" />
    <ellipse
       style="display:inline;fill:#008080;fill-rule:evenodd;stroke-width:0.151311"
       id="path257-75-3"
       cx="198.59593"
       cy="80.04393"
       rx="1.7043281"
       ry="1.6851289" />
    <ellipse
       style="display:inline;fill:#008080;fill-rule:evenodd;stroke-width:0.151311"
       id="path257-92-1"
       cx="198.08745"
       cy="116.57315"
       rx="1.7043281"
       ry="1.6851289" />
    <ellipse
       style="display:inline;fill:#008080;fill-rule:evenodd;stroke-width:0.151311"
       id="path257-28-4"
       cx="180.28702"
       cy="104.57048"
       rx="1.7043281"
       ry="1.6851289" />
    <ellipse
       style="display:inline;fill:#008080;fill-rule:evenodd;stroke-width:0.151311"
       id="path257-97-6"
       cx="156.51122"
       cy="70.912506"
       rx="1.7043281"
       ry="1.6851289" />
    <ellipse
       style="display:inline;fill:#008080;fill-rule:evenodd;stroke-width:0.151311"
       id="path257-36-9"
       cx="146.84258"
       cy="94.635124"
       rx="1.7043281"
       ry="1.6851289" />
    <ellipse
       style="display:inline;fill:#008080;fill-rule:evenodd;stroke-width:0.151311"
       id="path257-12-4"
       cx="133.82587"
       cy="130.80959"
       rx="1.7043281"
       ry="1.6851289" />
    <ellipse
       style="display:inline;fill:#008080;fill-rule:evenodd;stroke-width:0.151311"
       id="path257-94-2"
       cx="109.31755"
       cy="96.901886"
       rx="1.7043281"
       ry="1.6851289" />
    <ellipse
       style="display:inline;fill:#008080;fill-rule:evenodd;stroke-width:0.151311"
       id="path257-50-2"
       cx="113.55075"
       cy="63.015968"
       rx="1.7043281"
       ry="1.6851289" />
    <ellipse
       style="display:inline;fill:#008080;fill-rule:evenodd;stroke-width:0.151311"
       id="path257-361-6"
       cx="143.84068"
       cy="52.308372"
       rx="1.7043281"
       ry="1.6851289" />
    <ellipse
       style="display:inline;fill:#008080;fill-rule:evenodd;stroke-width:0.151311"
       id="path257-0-4"
       cx="151.56673"
       cy="37.83543"
       rx="1.7043281"
       ry="1.6851289" />
    <ellipse
       style="display:inline;fill:#008080;fill-rule:evenodd;stroke-width:0.151311"
       id="path257-63-1"
       cx="162.48746"
       cy="18.583508"
       rx="1.7043281"
       ry="1.6851289" />
    <ellipse
       style="display:inline;fill:#008080;fill-rule:evenodd;stroke-width:0.151311"
       id="path257-206-2"
       cx="149.34273"
       cy="26.415173"
       rx="1.7043281"
       ry="1.6851289" />
    <ellipse
       style="display:inline;fill:#008080;fill-rule:evenodd;stroke-width:0.151311"
       id="path257-15-8"
       cx="139.98091"
       cy="33.474606"
       rx="1.7043281"
       ry="1.6851289" />
    <ellipse
       style="display:inline;fill:#008080;fill-rule:evenodd;stroke-width:0.151311"
       id="path257-54-8"
       cx="130.82652"
       cy="10.896652"
       rx="1.7043281"
       ry="1.6851289" />
    <ellipse
       style="display:inline;fill:#008080;fill-rule:evenodd;stroke-width:0.151311"
       id="path257-56-9"
       cx="125.99654"
       cy="14.080477"
       rx="1.7043281"
       ry="1.6851289" />
    <ellipse
       style="display:inline;fill:#008080;fill-rule:evenodd;stroke-width:0.151311"
       id="path257-937-2"
       cx="121.22129"
       cy="25.706188"
       rx="1.7043281"
       ry="1.6851289" />
    <ellipse
       style="display:inline;fill:#008080;fill-rule:evenodd;stroke-width:0.151311"
       id="path257-45-8"
       cx="118.9402"
       cy="42.638565"
       rx="1.7043281"
       ry="1.6851289" />
    <ellipse
       style="display:inline;fill:#008080;fill-rule:evenodd;stroke-width:0.151311"
       id="path257-25-8"
       cx="119.43664"
       cy="49.040596"
       rx="1.7043281"
       ry="1.6851289" />
    <ellipse
       style="display:inline;fill:#008080;fill-rule:evenodd;stroke-width:0.151311"
       id="path257-47-8"
       cx="126.31007"
       cy="49.839943"
       rx="1.7043281"
       ry="1.6851289" />
    <ellipse
       style="display:inline;fill:#008080;fill-rule:evenodd;stroke-width:0.151311"
       id="path257-44-6"
       cx="135.44322"
       cy="49.271408"
       rx="1.7043281"
       ry="1.6851289" />
    <ellipse
       style="display:inline;fill:none;fill-rule:nonzero;stroke:#000000;stroke-width:0.305913;stroke-miterlimit:4;stroke-dasharray:none;stroke-opacity:1"
       id="path1486-8"
       ry="20.492247"
       rx="20.264015"
       cy="36.714874"
       cx="166.32231" />
    <text
       xml:space="preserve"
       style="font-style:normal;font-weight:normal;font-size:3.45131px;line-height:1.25;font-family:sans-serif;display:inline;fill:#000000;fill-opacity:1;stroke:none;stroke-width:0.0862828"
       x="185.97816"
       y="42.238358"
       id="text1500-3"
       transform="scale(0.8992872,1.1119918)"><tspan
         sodipodi:role="line"
         id="tspan1498-8"
         x="185.97816"
         y="42.238358"
         style="stroke-width:0.0862828">nearest</tspan></text>
    <path
       style="display:inline;fill:none;stroke:#000000;stroke-width:0.192281;stroke-linecap:butt;stroke-linejoin:bevel;stroke-miterlimit:4;stroke-dasharray:none;stroke-opacity:1;marker-start:url(#marker1864-8)"
       d="m 172.76449,28.851412 -6.32949,8.0799"
       id="path1512"
       sodipodi:nodetypes="cc" />
    <path
       style="display:inline;fill:none;stroke:#000000;stroke-width:0.169352;stroke-linecap:butt;stroke-linejoin:bevel;stroke-miterlimit:4;stroke-dasharray:none;stroke-opacity:1;marker-start:url(#marker1864-7-4)"
       d="M 153.81206,37.706564 166.435,36.931312"
       id="path1512-1"
       sodipodi:nodetypes="cc" />
    <text
       xml:space="preserve"
       style="font-style:normal;font-weight:normal;font-size:3.45131px;line-height:1.25;font-family:sans-serif;display:inline;fill:#000000;fill-opacity:1;stroke:none;stroke-width:0.0862828"
       x="190.29782"
       y="21.904099"
       id="text1500-7"
       transform="scale(0.8992872,1.1119918)"><tspan
         sodipodi:role="line"
         x="190.29782"
         y="21.904099"
         style="stroke-width:0.0862828"
         id="tspan2086">2nd</tspan></text>
    <text
       xml:space="preserve"
       style="font-style:normal;font-weight:normal;font-size:3.43966px;line-height:1.25;font-family:sans-serif;display:inline;fill:#000000;fill-opacity:1;stroke:none;stroke-width:0.0859922"
       x="165.84816"
       y="31.42345"
       id="text1500-7-4"
       transform="scale(0.8962529,1.1157565)"><tspan
         sodipodi:role="line"
         x="165.84816"
         y="31.42345"
         style="stroke-width:0.0859922"
         id="tspan2086-8">3rd</tspan></text>
    <path
       style="display:inline;fill:none;stroke:#000000;stroke-width:0.169352;stroke-linecap:butt;stroke-linejoin:bevel;stroke-miterlimit:4;stroke-dasharray:none;stroke-opacity:1;marker-start:url(#marker1864-7-0-9)"
       d="M 170.85594,40.48148 166.435,36.931312"
       id="path1512-1-2-3"
       sodipodi:nodetypes="cc" />
    <ellipse
       style="display:inline;fill:#ff0000;fill-opacity:1;fill-rule:nonzero;stroke:#ff0000;stroke-width:0.0635599;stroke-linejoin:bevel;stroke-miterlimit:4;stroke-dasharray:none;stroke-opacity:1"
       id="path2344-3"
       cx="166.53922"
       cy="36.777275"
       rx="0.80461079"
       ry="0.76771188" />
    <path
       style="fill:none;stroke:#000000;stroke-width:0.0956946px;stroke-linecap:butt;stroke-linejoin:miter;stroke-opacity:1"
       d="M 105.01115,0.00535793 104.94282,100.49084"
       id="path3159"
       sodipodi:nodetypes="cc" />
  </g>
</svg>
