<?xml version="1.0" encoding="UTF-8" standalone="no"?>
<svg
   xmlns:dc="http://purl.org/dc/elements/1.1/"
   xmlns:cc="http://creativecommons.org/ns#"
   xmlns:rdf="http://www.w3.org/1999/02/22-rdf-syntax-ns#"
   xmlns:svg="http://www.w3.org/2000/svg"
   xmlns="http://www.w3.org/2000/svg"
   xmlns:sodipodi="http://sodipodi.sourceforge.net/DTD/sodipodi-0.dtd"
   xmlns:inkscape="http://www.inkscape.org/namespaces/inkscape"
   version="1.1"
   id="Layer_1"
   x="0px"
   y="0px"
   viewBox="0 0 179.63519 54.229828"
   xml:space="preserve"
   sodipodi:docname="met-logo-engelsk.svg"
   width="179.63519"
   height="54.229828"
   inkscape:version="1.0.2 (1.0.2+r75+1)"><metadata
   id="metadata437"><rdf:RDF><cc:Work
       rdf:about=""><dc:format>image/svg+xml</dc:format><dc:type
         rdf:resource="http://purl.org/dc/dcmitype/StillImage" /><dc:title></dc:title></cc:Work></rdf:RDF></metadata><defs
   id="defs435" /><sodipodi:namedview
   pagecolor="#ffffff"
   bordercolor="#666666"
   borderopacity="1"
   objecttolerance="10"
   gridtolerance="10"
   guidetolerance="10"
   inkscape:pageopacity="0"
   inkscape:pageshadow="2"
   inkscape:window-width="1512"
   inkscape:window-height="987"
   id="namedview433"
   showgrid="false"
   inkscape:zoom="6.7549668"
   inkscape:cx="44.847182"
   inkscape:cy="24.024363"
   inkscape:window-x="2222"
   inkscape:window-y="112"
   inkscape:window-maximized="0"
   inkscape:current-layer="g430"
   fit-margin-top="0"
   fit-margin-left="0"
   fit-margin-right="0"
   fit-margin-bottom="0" />
<style
   type="text/css"
   id="style362">
	.st0{fill:#00A8CB;}
</style>
<g
   id="g430"
   transform="matrix(1.7960927,0,0,1.7950953,-30.731147,-31.019247)">
	<path
   class="st0"
   d="m 26.52,35.76 c -5.1,0 -9.24,-4.15 -9.24,-9.24 0,-5.1 4.15,-9.24 9.24,-9.24 5.1,0 9.24,4.15 9.24,9.24 0,5.09 -4.15,9.24 -9.24,9.24 z m 0,-17.1 c -4.33,0 -7.85,3.52 -7.85,7.85 0,4.33 3.52,7.85 7.85,7.85 4.33,0 7.86,-3.52 7.86,-7.85 -0.01,-4.33 -3.53,-7.85 -7.86,-7.85 z"
   id="path364"
   style="fill:#0090a8;fill-opacity:1" />
	<polygon
   class="st0"
   points="28.42,43.88 24.8,47.49 21.18,43.88 18.02,47.04 17.11,46.13 21.18,42.06 24.8,45.68 28.42,42.06 32.03,45.68 35.19,42.52 36.1,43.42 32.03,47.49 "
   id="polygon366"
   style="fill:#0090a8;fill-opacity:1" />
	<path
   class="st0"
   d="m 50.5,46.23 h -1.08 v -5.29 h 1.08 v 0.46 c 0.15,-0.31 0.68,-0.6 1.23,-0.6 0.91,0 2.1,0.56 2.1,2.19 v 3.24 h -1.08 v -3.22 c 0,-0.8 -0.46,-1.17 -1.13,-1.17 -0.67,0 -1.13,0.37 -1.13,1.17 v 3.22 z"
   id="path368"
   style="fill:#0090a8;fill-opacity:1" />
	<path
   class="st0"
   d="m 55.2,44.53 h 1.11 c 0.08,0.52 0.58,0.76 1.16,0.76 0.47,0 0.87,-0.12 0.87,-0.55 0,-0.36 -0.32,-0.47 -0.67,-0.55 l -1,-0.25 c -0.7,-0.17 -1.34,-0.56 -1.34,-1.58 0,-1.05 0.84,-1.56 1.92,-1.56 1.14,0 1.93,0.51 2.03,1.69 h -1.13 c -0.08,-0.46 -0.48,-0.66 -0.98,-0.66 -0.33,0 -0.76,0.12 -0.76,0.54 0,0.32 0.31,0.42 0.6,0.49 l 0.97,0.25 c 0.96,0.25 1.45,0.66 1.45,1.66 -0.01,1.05 -0.82,1.56 -1.97,1.56 -1.23,0 -2.2,-0.59 -2.26,-1.8 z m 7.09,0.16 c 0,0.39 0.07,0.5 0.49,0.5 h 0.81 v 1.04 h -1.12 c -0.88,0 -1.26,-0.43 -1.26,-1.26 v -3.01 h -0.75 v -1.01 h 0.75 v -1.2 h 1.08 v 1.2 h 1.3 v 1.01 h -1.3 z"
   id="path370"
   style="fill:#0090a8;fill-opacity:1" />
	<path
   class="st0"
   d="m 66.17,40.14 h -1.08 v -1.1 h 1.08 z m 0,6.09 h -1.08 v -5.29 h 1.08 z"
   id="path372"
   style="fill:#0090a8;fill-opacity:1" />
	<path
   class="st0"
   d="m 69.45,44.69 c 0,0.39 0.07,0.5 0.49,0.5 h 0.81 v 1.04 h -1.12 c -0.88,0 -1.26,-0.43 -1.26,-1.26 v -3.01 h -0.75 v -1.01 h 0.75 v -1.2 h 1.08 v 1.2 h 1.3 v 1.01 h -1.3 z"
   id="path374"
   style="fill:#0090a8;fill-opacity:1" />
	<path
   class="st0"
   d="m 73.29,44.11 c 0,0.8 0.46,1.17 1.1,1.17 0.64,0 1.1,-0.37 1.1,-1.17 v -3.18 h 1.08 v 5.29 h -1.08 v -0.5 c -0.15,0.31 -0.68,0.61 -1.23,0.61 -0.91,0 -2.04,-0.64 -2.04,-2.19 v -3.2 h 1.08 v 3.17 z"
   id="path376"
   style="fill:#0090a8;fill-opacity:1" />
	<path
   class="st0"
   d="m 79.67,44.69 c 0,0.39 0.07,0.5 0.49,0.5 h 0.81 v 1.04 h -1.12 c -0.88,0 -1.26,-0.43 -1.26,-1.26 v -3.01 h -0.75 v -1.01 h 0.75 v -1.2 h 1.08 v 1.2 h 1.3 v 1.01 h -1.3 z"
   id="path378"
   style="fill:#0090a8;fill-opacity:1" />
	<path
   class="st0"
   d="m 51.76,25.06 h -1.1 l -2.95,-5.15 v 5.15 h -1.1 v -7.18 h 1.1 l 2.95,5.15 v -5.15 h 1.1 z"
   id="path380"
   style="fill:#0090a8;fill-opacity:1" />
	<path
   class="st0"
   d="m 53.42,21.82 c 0,-1.74 1.28,-2.19 2.21,-2.19 0.92,0 2.21,0.45 2.21,2.19 v 1.15 c 0,1.74 -1.28,2.2 -2.21,2.2 -0.92,0 -2.21,-0.45 -2.21,-2.2 z m 3.33,0.02 c 0,-0.8 -0.46,-1.18 -1.13,-1.18 -0.67,0 -1.13,0.38 -1.13,1.18 v 1.11 c 0,0.8 0.46,1.18 1.13,1.18 0.67,0 1.13,-0.38 1.13,-1.18 z"
   id="path382"
   style="fill:#0090a8;fill-opacity:1" />
	<path
   class="st0"
   d="m 61.6,20.73 c -0.67,0 -1.13,0.37 -1.13,1.17 v 3.17 h -1.08 v -5.29 h 1.08 v 0.51 c 0.15,-0.31 0.68,-0.61 1.23,-0.61 h 0.41 v 1.05 z"
   id="path384"
   style="fill:#0090a8;fill-opacity:1" />
	<path
   class="st0"
   d="m 68.29,23.37 0.88,-3.6 h 1.1 l -1.4,5.29 h -1.09 l -0.97,-3.89 -0.98,3.89 h -1.09 l -1.39,-5.29 h 1.1 l 0.88,3.6 0.9,-3.6 h 1.15 z"
   id="path386"
   style="fill:#0090a8;fill-opacity:1" />
	<path
   class="st0"
   d="m 74.74,23.38 h 1.1 c -0.18,1.41 -1.32,1.79 -2.18,1.79 -0.92,0 -2.2,-0.45 -2.2,-2.2 v -1.15 c 0,-1.74 1.28,-2.19 2.2,-2.19 0.92,0 2.21,0.45 2.21,2.19 v 0.95 h -3.33 v 0.17 c 0,0.8 0.46,1.18 1.13,1.18 0.53,0.01 0.93,-0.23 1.07,-0.74 z m -2.2,-1.57 v 0.01 h 2.26 v -0.01 c -0.01,-0.77 -0.47,-1.15 -1.13,-1.15 -0.67,0 -1.13,0.38 -1.13,1.15 z"
   id="path388"
   style="fill:#0090a8;fill-opacity:1" />
	<path
   class="st0"
   d="m 80.61,24.84 v -0.58 c -0.15,0.31 -0.68,0.61 -1.23,0.61 -0.91,0 -2.1,-0.56 -2.1,-2.2 v -0.84 c 0,-1.63 1.19,-2.19 2.1,-2.19 0.56,0 1.08,0.3 1.23,0.6 v -0.46 h 1.08 v 5.09 c 0,1.74 -1.28,2.19 -2.2,2.19 -0.87,0 -2.04,-0.4 -2.19,-1.89 h 1.09 c 0.11,0.57 0.53,0.85 1.1,0.85 0.66,0 1.12,-0.38 1.12,-1.18 z m -2.26,-2.2 c 0,0.8 0.46,1.17 1.13,1.17 0.67,0 1.13,-0.37 1.13,-1.17 v -0.8 c 0,-0.8 -0.46,-1.17 -1.13,-1.17 -0.67,0 -1.13,0.37 -1.13,1.17 z"
   id="path390"
   style="fill:#0090a8;fill-opacity:1" />
	<path
   class="st0"
   d="m 84.51,18.98 h -1.08 v -1.1 h 1.08 z m 0,6.08 h -1.08 v -5.29 h 1.08 z"
   id="path392"
   style="fill:#0090a8;fill-opacity:1" />
	<path
   class="st0"
   d="m 86.07,21.82 c 0,-1.63 1.19,-2.19 2.1,-2.19 0.55,0 1.08,0.3 1.23,0.6 v -0.46 h 1.08 v 5.29 H 89.4 v -0.5 c -0.15,0.31 -0.68,0.61 -1.23,0.61 -0.91,0 -2.1,-0.56 -2.1,-2.2 z m 1.08,1.13 c 0,0.8 0.46,1.17 1.06,1.17 0.67,0 1.2,-0.37 1.2,-1.17 v -1.11 c 0,-0.8 -0.46,-1.17 -1.13,-1.17 -0.67,0 -1.13,0.37 -1.13,1.17 z"
   id="path394"
   style="fill:#0090a8;fill-opacity:1" />
	<path
   class="st0"
   d="m 93.34,25.06 h -1.08 v -5.29 h 1.08 v 0.46 c 0.15,-0.31 0.68,-0.6 1.23,-0.6 0.91,0 2.1,0.56 2.1,2.19 v 3.24 H 95.6 v -3.22 c 0,-0.8 -0.46,-1.17 -1.13,-1.17 -0.67,0 -1.13,0.37 -1.13,1.17 z"
   id="path396"
   style="fill:#0090a8;fill-opacity:1" />
	<path
   class="st0"
   d="m 51.55,28.47 h 1.1 v 7.18 h -1.09 v -4.98 l -1.48,3.06 h -0.9 L 47.7,30.67 v 4.98 h -1.09 v -7.18 h 1.1 l 1.92,3.97 z"
   id="path398"
   style="fill:#0090a8;fill-opacity:1" />
	<path
   class="st0"
   d="m 57.57,33.96 h 1.1 c -0.19,1.4 -1.32,1.78 -2.17,1.78 -0.92,0 -2.21,-0.45 -2.21,-2.2 V 32.4 c 0,-1.74 1.28,-2.2 2.21,-2.2 0.92,0 2.21,0.45 2.21,2.2 v 0.95 h -3.33 v 0.17 c 0,0.8 0.46,1.18 1.13,1.18 0.51,0.01 0.91,-0.23 1.06,-0.74 z M 55.36,32.4 v 0 l 2.26,0.01 V 32.4 c -0.01,-0.77 -0.47,-1.15 -1.13,-1.15 -0.67,-0.01 -1.13,0.37 -1.13,1.15 z"
   id="path400"
   style="fill:#0090a8;fill-opacity:1" />
	<path
   class="st0"
   d="m 61.7,34.11 c 0,0.39 0.07,0.5 0.49,0.5 H 63 v 1.04 h -1.12 c -0.88,0 -1.26,-0.43 -1.26,-1.26 v -3.01 h -0.75 v -1.02 h 0.75 v -1.2 h 1.08 v 1.2 H 63 v 1.02 h -1.3 z"
   id="path402"
   style="fill:#0090a8;fill-opacity:1" />
	<path
   class="st0"
   d="m 67.64,33.96 h 1.1 c -0.18,1.4 -1.32,1.78 -2.18,1.78 -0.92,0 -2.2,-0.45 -2.2,-2.2 V 32.4 c 0,-1.74 1.28,-2.2 2.2,-2.2 0.92,0 2.21,0.45 2.21,2.2 v 0.95 h -3.33 v 0.17 c 0,0.8 0.46,1.18 1.13,1.18 0.53,0.01 0.93,-0.23 1.07,-0.74 z m -2.2,-1.56 v 0 l 2.26,0.01 V 32.4 c -0.01,-0.77 -0.47,-1.15 -1.13,-1.15 -0.67,-0.01 -1.13,0.37 -1.13,1.15 z"
   id="path404"
   style="fill:#0090a8;fill-opacity:1" />
	<path
   class="st0"
   d="m 70.25,32.4 c 0,-1.74 1.28,-2.2 2.21,-2.2 0.92,0 2.21,0.45 2.21,2.2 v 1.15 c 0,1.74 -1.28,2.2 -2.21,2.2 -0.92,0 -2.21,-0.45 -2.21,-2.2 z m 3.34,0.02 c 0,-0.8 -0.46,-1.18 -1.13,-1.18 -0.67,0 -1.13,0.38 -1.13,1.18 v 1.11 c 0,0.8 0.46,1.18 1.13,1.18 0.67,0 1.13,-0.38 1.13,-1.18 z"
   id="path406"
   style="fill:#0090a8;fill-opacity:1" />
	<path
   class="st0"
   d="m 78.38,31.31 c -0.67,0 -1.13,0.37 -1.13,1.17 v 3.17 h -1.08 v -5.29 h 1.08 v 0.51 c 0.15,-0.31 0.68,-0.61 1.23,-0.61 h 0.41 v 1.05 z"
   id="path408"
   style="fill:#0090a8;fill-opacity:1" />
	<path
   class="st0"
   d="m 80,32.4 c 0,-1.74 1.28,-2.2 2.21,-2.2 0.92,0 2.21,0.45 2.21,2.2 v 1.15 c 0,1.74 -1.28,2.2 -2.21,2.2 -0.92,0 -2.21,-0.45 -2.21,-2.2 z m 3.34,0.02 c 0,-0.8 -0.46,-1.18 -1.13,-1.18 -0.67,0 -1.13,0.38 -1.13,1.18 v 1.11 c 0,0.8 0.46,1.18 1.13,1.18 0.67,0 1.13,-0.38 1.13,-1.18 z"
   id="path410"
   style="fill:#0090a8;fill-opacity:1" />
	<path
   class="st0"
   d="m 87.05,34.11 c 0,0.39 0.07,0.5 0.49,0.5 h 0.17 v 1.04 h -0.47 c -0.88,0 -1.26,-0.43 -1.26,-1.26 v -5.92 h 1.08 v 5.64 z"
   id="path412"
   style="fill:#0090a8;fill-opacity:1" />
	<path
   class="st0"
   d="m 89.03,32.4 c 0,-1.74 1.28,-2.2 2.21,-2.2 0.92,0 2.21,0.45 2.21,2.2 v 1.15 c 0,1.74 -1.28,2.2 -2.21,2.2 -0.92,0 -2.21,-0.45 -2.21,-2.2 z m 3.34,0.02 c 0,-0.8 -0.46,-1.18 -1.13,-1.18 -0.67,0 -1.13,0.38 -1.13,1.18 v 1.11 c 0,0.8 0.46,1.18 1.13,1.18 0.67,0 1.13,-0.38 1.13,-1.18 z"
   id="path414"
   style="fill:#0090a8;fill-opacity:1" />
	<path
   class="st0"
   d="m 98.18,35.42 v -0.58 c -0.15,0.31 -0.68,0.6 -1.23,0.6 -0.91,0 -2.1,-0.56 -2.1,-2.2 V 32.4 c 0,-1.63 1.19,-2.2 2.1,-2.2 0.55,0 1.08,0.3 1.23,0.61 v -0.46 h 1.08 v 5.09 c 0,1.74 -1.28,2.19 -2.21,2.19 -0.87,0 -2.04,-0.4 -2.18,-1.89 h 1.09 c 0.11,0.57 0.53,0.85 1.1,0.85 0.66,0.01 1.12,-0.37 1.12,-1.17 z m -2.26,-2.2 c 0,0.8 0.46,1.17 1.13,1.17 0.67,0 1.13,-0.37 1.13,-1.17 v -0.8 c 0,-0.8 -0.46,-1.17 -1.13,-1.17 -0.67,0 -1.13,0.37 -1.13,1.17 z"
   id="path416"
   style="fill:#0090a8;fill-opacity:1" />
	<path
   class="st0"
   d="m 102.09,29.56 h -1.08 v -1.1 h 1.08 z m 0,6.09 h -1.08 v -5.29 h 1.08 z"
   id="path418"
   style="fill:#0090a8;fill-opacity:1" />
	<path
   class="st0"
   d="m 105.8,35.75 c -0.92,0 -2.21,-0.45 -2.21,-2.2 V 32.4 c 0,-1.74 1.28,-2.2 2.21,-2.2 0.87,0 2.06,0.4 2.19,1.91 h -1.1 c -0.1,-0.58 -0.52,-0.87 -1.1,-0.87 -0.67,0 -1.13,0.38 -1.13,1.18 v 1.11 c 0,0.8 0.46,1.18 1.13,1.18 0.57,0 1,-0.29 1.11,-0.87 h 1.09 c -0.13,1.51 -1.32,1.91 -2.19,1.91 z"
   id="path420"
   style="fill:#0090a8;fill-opacity:1" />
	<path
   class="st0"
   d="m 109.28,32.4 c 0,-1.63 1.19,-2.2 2.1,-2.2 0.55,0 1.08,0.3 1.23,0.61 v -0.46 h 1.08 v 5.29 h -1.08 v -0.5 c -0.15,0.31 -0.68,0.61 -1.23,0.61 -0.91,0 -2.1,-0.56 -2.1,-2.2 z m 1.08,1.13 c 0,0.8 0.46,1.17 1.05,1.17 0.67,0 1.2,-0.37 1.2,-1.17 v -1.11 c 0,-0.8 -0.46,-1.17 -1.13,-1.17 -0.67,0 -1.13,0.37 -1.13,1.17 v 1.11 z"
   id="path422"
   style="fill:#0090a8;fill-opacity:1" />
	<path
   class="st0"
   d="m 116.53,34.11 c 0,0.39 0.07,0.5 0.49,0.5 h 0.16 v 1.04 h -0.47 c -0.88,0 -1.26,-0.43 -1.26,-1.26 v -5.92 h 1.08 z"
   id="path424"
   style="fill:#0090a8;fill-opacity:1" />
	<path
   class="st0"
   d="m 47.67,46.23 h -1.1 v -7.18 h 1.1 z"
   id="path426"
   style="fill:#0090a8;fill-opacity:1" />
	<path
   class="st0"
   d="m 85.61,44.54 h 1.1 c -0.18,1.41 -1.32,1.78 -2.17,1.78 -0.92,0 -2.21,-0.45 -2.21,-2.19 v -1.15 c 0,-1.74 1.28,-2.19 2.21,-2.19 0.92,0 2.2,0.45 2.2,2.19 v 0.95 h -3.33 v 0.18 c 0,0.8 0.46,1.18 1.13,1.18 0.53,0 0.93,-0.24 1.07,-0.75 z m -2.2,-1.56 v 0 l 2.26,0.01 v -0.01 c -0.01,-0.77 -0.47,-1.15 -1.13,-1.15 -0.67,-0.01 -1.13,0.37 -1.13,1.15 z"
   id="path428"
   style="fill:#0090a8;fill-opacity:1" />
</g>
</svg>
